<?xml version="1.0" standalone="no"?>
<!DOCTYPE svg PUBLIC "-//W3C//DTD SVG 20010904//EN"
 "http://www.w3.org/TR/2001/REC-SVG-20010904/DTD/svg10.dtd">
<svg version="1.0" xmlns="http://www.w3.org/2000/svg"
 width="1080.000000pt" height="1080.000000pt" viewBox="0 0 1080.000000 1080.000000"
 preserveAspectRatio="xMidYMid meet">

<g transform="translate(0.000000,1080.000000) scale(0.100000,-0.100000)"
fill="#000000" stroke="none">
<path d="M5938 7846 c-82 -30 -113 -67 -124 -148 -13 -97 41 -185 127 -208 63
-17 169 -8 212 19 73 45 100 168 56 257 -15 32 -32 48 -65 65 -57 27 -155 34
-206 15z"/>
<path d="M2749 7760 c-232 -22 -428 -119 -561 -278 -55 -66 -134 -231 -158
-332 -77 -325 -31 -721 111 -940 115 -179 280 -286 512 -334 42 -9 108 -16
146 -16 38 0 81 -4 94 -9 14 -5 98 -100 188 -210 l163 -201 248 0 c136 0 248
3 248 6 0 3 -94 110 -208 237 -115 128 -211 237 -215 243 -4 7 17 26 53 48
257 153 390 435 390 831 0 460 -167 765 -491 894 -137 55 -337 78 -520 61z
m236 -331 c129 -24 240 -111 295 -232 48 -106 64 -202 63 -387 0 -191 -15
-277 -67 -385 -48 -100 -93 -148 -183 -192 -71 -35 -84 -38 -181 -42 -222 -8
-345 58 -431 229 -57 115 -75 225 -68 437 5 183 23 271 75 367 91 167 280 245
497 205z"/>
<path d="M4110 6793 c0 -399 3 -522 14 -575 55 -257 251 -385 551 -358 149 13
249 59 337 154 30 31 51 47 56 41 5 -6 19 -47 32 -92 l23 -83 148 0 149 0 0
710 0 710 -195 0 -195 0 0 -399 c0 -306 -3 -417 -14 -474 -35 -180 -122 -259
-285 -260 -90 -1 -141 22 -180 79 -48 70 -51 105 -51 596 l0 458 -195 0 -195
0 0 -507z"/>
<path d="M5830 6590 l0 -710 195 0 195 0 0 710 0 710 -195 0 -195 0 0 -710z"/>
<path d="M6530 7150 l0 -150 305 -2 305 -3 -325 -442 -325 -441 0 -116 0 -116
560 0 560 0 0 150 0 150 -325 0 c-179 0 -325 3 -325 6 0 3 142 199 315 436
l315 430 0 124 0 124 -530 0 -530 0 0 -150z"/>
<path d="M7800 7150 l0 -150 305 -2 305 -3 -325 -442 -325 -441 0 -116 0 -116
560 0 560 0 0 150 0 150 -325 0 c-179 0 -325 3 -325 6 0 3 142 199 315 436
l315 429 0 125 0 124 -530 0 -530 0 0 -150z"/>
<path d="M7731 4886 c-82 -27 -121 -85 -121 -179 0 -73 32 -134 85 -161 55
-28 162 -34 220 -11 139 53 156 263 27 334 -54 29 -149 37 -211 17z"/>
<path d="M1317 4773 c-4 -3 -7 -422 -7 -930 l0 -923 180 0 180 0 0 418 c0 386
-11 810 -25 977 -4 45 -3 66 3 60 5 -5 94 -284 197 -620 102 -335 202 -661
221 -723 l35 -112 182 2 181 3 236 717 c130 395 240 721 244 725 5 4 6 -41 2
-102 -3 -60 -9 -388 -12 -727 l-7 -618 187 0 186 0 0 930 0 930 -268 0 -268 0
-46 -142 c-312 -954 -421 -1279 -427 -1271 -4 4 -92 283 -196 618 -103 336
-201 652 -217 703 l-29 92 -263 0 c-144 0 -266 -3 -269 -7z"/>
<path d="M5491 4631 c-6 -10 -31 -72 -55 -137 -24 -66 -47 -126 -51 -135 -3
-9 -53 -44 -110 -79 l-105 -63 0 -83 0 -84 89 0 89 0 5 -407 c4 -433 6 -453
56 -557 30 -61 106 -129 177 -157 54 -21 74 -24 224 -24 163 0 229 9 308 42
l32 13 0 141 0 141 -27 -6 c-162 -34 -206 -39 -257 -27 -57 13 -97 45 -115 94
-7 18 -11 158 -11 388 l0 359 200 0 200 0 0 145 0 145 -200 0 -200 0 0 155 0
155 -120 0 c-107 0 -120 -2 -129 -19z"/>
<path d="M4162 4360 c-91 -13 -215 -47 -302 -82 -41 -17 -77 -33 -79 -34 -2
-2 25 -62 59 -134 50 -101 68 -129 80 -124 214 89 402 117 495 75 77 -35 108
-93 109 -206 l1 -50 -180 -7 c-255 -9 -369 -30 -488 -90 -157 -78 -230 -234
-207 -440 19 -164 89 -265 230 -332 58 -27 77 -31 183 -34 205 -8 314 29 427
142 36 36 68 66 71 66 3 0 23 -43 43 -95 l38 -95 134 0 134 0 0 509 c0 279 -4
530 -9 557 -36 187 -158 312 -352 359 -77 19 -299 27 -387 15z m362 -877 c-1
-74 -6 -101 -26 -145 -48 -103 -121 -148 -250 -156 -101 -6 -161 20 -189 82
-22 48 -23 67 -8 136 22 103 116 157 299 170 58 4 121 7 140 6 l35 -1 -1 -92z"/>
<path d="M7151 4359 c-108 -18 -252 -118 -315 -218 -15 -23 -30 -41 -35 -41
-5 0 -22 54 -37 120 l-27 120 -149 0 -148 0 0 -710 0 -710 195 0 194 0 3 413
3 412 28 60 c65 139 174 197 367 194 l105 -2 6 64 c4 35 10 116 14 180 l7 116
-38 6 c-50 9 -105 7 -173 -4z"/>
<path d="M7620 3630 l0 -710 195 0 195 0 0 710 0 710 -195 0 -195 0 0 -710z"/>
<path d="M8260 4335 c0 -3 100 -157 222 -343 121 -185 221 -342 221 -347 0 -6
-103 -165 -229 -355 -127 -190 -234 -351 -238 -357 -6 -10 39 -13 212 -13
l220 0 147 240 c81 132 151 240 154 240 3 -1 71 -109 151 -240 l145 -240 218
0 c119 0 217 2 217 5 0 3 -107 166 -238 363 l-238 357 218 330 c120 182 223
338 229 348 9 16 -4 17 -208 17 l-219 0 -138 -225 -139 -226 -84 138 c-46 76
-107 177 -136 225 l-52 87 -217 1 c-120 0 -218 -2 -218 -5z"/>
</g>
</svg>
