<?xml version="1.0" encoding="UTF-8"?>
<!-- Created with Inkscape (http://www.inkscape.org/) -->
<svg width="16" height="16" version="1.1" viewBox="0 0 4.2333 4.2333" xmlns="http://www.w3.org/2000/svg">
 <circle cx="2.1167" cy="2.1167" r="2.1167" stroke-width=".84428"/>
 <g transform="matrix(.11504 0 0 .11504 -.75924 -.75924)" fill="#fff">
  <circle cx="25" cy="25" r="1.5" stroke-width=".26718"/>
  <circle cx="15" cy="15" r="1.5" stroke-width=".26718"/>
  <path d="m23.996 21.258v-5.0966s0.13907-1.1612-1.2516-1.1612h-5.1456s-1.2493 0.12794-0.13907 1.2258l5.2847 5.2256s1.2516 1.3548 1.2516-0.19354z" stroke-width=".28632"/>
  <path d="m15.004 17.742v5.0966s-0.13907 1.1612 1.2516 1.1612h5.1456s1.2493-0.12794 0.13907-1.2258l-5.2847-5.2256s-1.2516-1.3548-1.2516 0.19354z" stroke-width=".28632"/>
  <circle transform="scale(-1,1)" cx="-35" cy="15" r="1.5" stroke-width=".26718"/>
  <path d="m26.004 21.258v-5.0966s-0.13907-1.1612 1.2516-1.1612h5.1456s1.2493 0.12794 0.13907 1.2258l-5.2847 5.2256s-1.2516 1.3548-1.2516-0.19354z" stroke-width=".28632"/>
  <path d="m34.996 17.742v5.0966s0.13907 1.1612-1.2516 1.1612h-5.1456s-1.2493-0.12794-0.13907-1.2258l5.2847-5.2256s1.2516-1.3548 1.2516 0.19354z" stroke-width=".28632"/>
  <circle transform="scale(1,-1)" cx="15" cy="-35" r="1.5" stroke-width=".26718"/>
  <path d="m23.996 28.742v5.0966s0.13907 1.1612-1.2516 1.1612h-5.1456s-1.2493-0.12794-0.13907-1.2258l5.2847-5.2256s1.2516-1.3548 1.2516 0.19354z" stroke-width=".28632"/>
  <path d="m15.004 32.258v-5.0966s-0.13907-1.1612 1.2516-1.1612h5.1456s1.2493 0.12794 0.13907 1.2258l-5.2847 5.2256s-1.2516 1.3548-1.2516-0.19354z" stroke-width=".28632"/>
  <circle transform="scale(-1)" cx="-35" cy="-35" r="1.5" stroke-width=".26718"/>
  <path d="m26.004 28.742v5.0966s-0.13907 1.1612 1.2516 1.1612h5.1456s1.2493-0.12794 0.13907-1.2258l-5.2847-5.2256s-1.2516-1.3548-1.2516 0.19354z" stroke-width=".28632"/>
  <path d="m34.996 32.258v-5.0966s0.13907-1.1612-1.2516-1.1612h-5.1456s-1.2493 0.12794-0.13907 1.2258l5.2847 5.2256s1.2516 1.3548 1.2516-0.19354z" stroke-width=".28632"/>
 </g>
</svg>
