<?xml version="1.0" encoding="UTF-8"?>
<svg version="1.1" xmlns="http://www.w3.org/2000/svg" width="1080" height="1080">
<path d="M0 0 C18.15 0 36.3 0 55 0 C64.83105364 31.40447228 74.65469746 62.81103855 84.375 94.25 C84.89330887 95.92499069 84.89330887 95.92499069 85.42208862 97.63381958 C89.68164531 111.40285282 93.88392147 125.1873718 98 139 C100.61427794 132.62800458 103.01948766 126.23065559 105.1796875 119.69140625 C105.46877991 118.82407867 105.75787231 117.9567511 106.0557251 117.06314087 C106.99868721 114.2306473 107.93702556 111.39664877 108.875 108.5625 C109.54140419 106.55571233 110.20790987 104.54895835 110.87451172 102.54223633 C118.62620478 79.17892438 126.23328182 55.76814441 133.79589844 32.34303284 C135.00932531 28.58576415 136.22487124 24.82918263 137.44061279 21.07266235 C138.29693925 18.42314573 139.14975765 15.77251694 140.00244141 13.12182617 C140.51838427 11.52647482 141.03448824 9.93117557 141.55078125 8.3359375 C141.7854863 7.60279831 142.02019135 6.86965912 142.26200867 6.11430359 C143.88620311 1.11379689 143.88620311 1.11379689 145 0 C163.15 0 181.3 0 200 0 C200 61.38 200 122.76 200 186 C187.46 186 174.92 186 162 186 C161.97723734 171.47217231 161.95889705 156.94435606 161.94818783 142.4165144 C161.94307844 135.66772452 161.93601 128.91894846 161.92456055 122.17016602 C161.91354412 115.63431486 161.90768427 109.09847609 161.90512276 102.56261635 C161.90330176 100.09248981 161.89974777 97.6223638 161.89426994 95.15224266 C161.85797796 78.07853463 162.24446509 61.05733561 163 44 C162.66640472 45.03405975 162.33280945 46.06811951 161.98910522 47.1335144 C156.38293244 64.50652254 150.73953928 81.86524198 144.9382019 99.1741333 C141.04382942 110.79967198 137.20659261 122.44356803 133.38671875 134.09375 C133.1385994 134.85033779 132.89048004 135.60692558 132.63484192 136.38644028 C130.10122052 144.1124578 127.56929092 151.83902522 125.04135799 159.56690598 C124.08519956 162.48892224 123.12783202 165.41054142 122.17020607 168.33207703 C121.71780387 169.71330671 121.26597392 171.09472395 120.81473351 172.47633362 C120.19209612 174.38262886 119.56741501 176.28825621 118.94262695 178.19384766 C118.59021439 179.27107086 118.23780182 180.34829407 117.87471008 181.4581604 C117 184 117 184 116 186 C103.46 186 90.92 186 78 186 C74.20704146 173.72956465 70.41486744 161.45889002 66.625 149.1875 C66.34347706 148.27594776 66.06195412 147.36439552 65.77190018 146.42522049 C57.95360018 121.10819925 50.16037062 95.78380676 42.4375 70.4375 C42.24365974 69.80132626 42.04981949 69.16515251 41.85010529 68.50970078 C39.56434276 61.00719511 37.28077801 53.50402245 35 46 C35.02996567 46.67611328 35.05993134 47.35222656 35.09080505 48.04882812 C36.24598607 75.44684553 36.11879455 102.84492057 36.06866455 130.26196289 C36.05826952 136.56526345 36.05383296 142.86856826 36.04882812 149.171875 C36.03823635 161.44792933 36.02071072 173.72395857 36 186 C24.12 186 12.24 186 0 186 C0 124.62 0 63.24 0 0 Z " fill="#070707" transform="translate(131,602)"/>
<path d="M0 0 C19.83281496 17.96543952 26.97797888 42.61426505 28.28125 68.6796875 C28.3225 69.8346875 28.36375 70.9896875 28.40625 72.1796875 C28.4475 73.1490625 28.48875 74.1184375 28.53125 75.1171875 C29.08528251 100.04865061 23.88611973 126.72094918 7.40625 146.1796875 C6.705 147.1490625 6.00375 148.1184375 5.28125 149.1171875 C-0.44426093 155.90228974 -8.77961045 161.09502364 -16.59375 165.1796875 C-16.160625 165.58960938 -15.7275 165.99953125 -15.28125 166.421875 C-14.724375 166.96070313 -14.1675 167.49953125 -13.59375 168.0546875 C-13.036875 168.58835937 -12.48 169.12203125 -11.90625 169.671875 C-10.59375 171.1796875 -10.59375 171.1796875 -10.59375 173.1796875 C-9.93375 173.1796875 -9.27375 173.1796875 -8.59375 173.1796875 C-7.21875 174.54296875 -7.21875 174.54296875 -5.59375 176.4921875 C-2.65625578 179.94986299 0.34349616 183.33213491 3.40625 186.6796875 C6.83284782 190.43655981 10.2156236 194.22212009 13.5390625 198.0703125 C15.00760735 199.72933806 16.50958495 201.35877381 18.0234375 202.9765625 C18.70696289 203.70939453 18.70696289 203.70939453 19.40429688 204.45703125 C20.72006545 205.8642504 22.04344843 207.26433841 23.3671875 208.6640625 C25.33380841 211.09031512 25.81100004 212.23542361 26.40625 215.1796875 C19.34582205 215.51136915 12.28742121 215.73776893 5.22094727 215.89379883 C2.82174645 215.95887778 0.42305541 216.04737796 -1.97436523 216.16040039 C-23.00806615 217.1266128 -23.00806615 217.1266128 -28.54882812 212.3972168 C-31.45295355 209.28260066 -33.49784995 205.87352262 -35.59375 202.1796875 C-36.85537769 200.55179037 -38.14116446 198.94175732 -39.46875 197.3671875 C-40.08621094 196.58601562 -40.70367187 195.80484375 -41.33984375 195 C-43.18871077 192.68651302 -45.05777398 190.3944371 -46.94140625 188.109375 C-47.53260254 187.38983643 -48.12379883 186.67029785 -48.73291016 185.92895508 C-49.9153747 184.49108718 -51.10115805 183.05594102 -52.29052734 181.6237793 C-52.83273926 180.96289307 -53.37495117 180.30200684 -53.93359375 179.62109375 C-54.42206787 179.03013916 -54.91054199 178.43918457 -55.41381836 177.83032227 C-56.59375 176.1796875 -56.59375 176.1796875 -57.59375 173.1796875 C-58.52574219 173.20289063 -59.45773437 173.22609375 -60.41796875 173.25 C-84.99528794 173.59790947 -107.86303264 167.27801422 -125.92578125 149.94140625 C-144.67085128 130.4299279 -149.82076522 103.48746313 -149.84375 77.3046875 C-149.84442474 76.61438446 -149.84509949 75.92408142 -149.84579468 75.21286011 C-149.82887611 64.3029125 -149.30397634 53.78993529 -146.59375 43.1796875 C-146.41682617 42.48359375 -146.23990234 41.7875 -146.05761719 41.0703125 C-140.73442459 20.91756954 -128.97484326 2.63936899 -110.75390625 -8.2265625 C-77.26138412 -25.11772323 -29.49481779 -24.73457821 0 0 Z M-92.07421875 25.2890625 C-107.25645305 41.35431605 -108.29335134 64.46501339 -107.72998047 85.36572266 C-106.90692904 102.36660222 -102.51750366 118.08270026 -89.71875 129.9296875 C-78.99417804 138.8634391 -67.23183944 140.06729043 -53.59375 139.1796875 C-42.01212003 137.53895659 -32.83874448 132.6813492 -25.34375 123.66015625 C-12.2514412 105.10297749 -12.07280828 77.35334119 -15.27734375 55.5625 C-17.69743743 42.6070205 -22.76046672 29.9181803 -33.71875 22.0546875 C-51.62172943 10.78024922 -75.6656472 11.33531661 -92.07421875 25.2890625 Z " fill="#070707" transform="translate(348.59375,321.8203125)"/>
<path d="M0 0 C1.30710937 -0.01611328 2.61421875 -0.03222656 3.9609375 -0.04882812 C21.21374742 -0.05738607 36.66051524 3.59670421 49.4296875 15.75 C59.3795767 27.36410554 60.79738201 41.7972396 60.73852539 56.42211914 C60.73867142 57.38903687 60.73881744 58.35595459 60.7389679 59.35217285 C60.73827662 62.51735758 60.73052129 65.68248192 60.72265625 68.84765625 C60.72078928 71.05439726 60.71936669 73.26113868 60.71836853 75.46788025 C60.71456534 81.25297201 60.70475397 87.03803834 60.69366455 92.82312012 C60.68340302 98.7355922 60.67886078 104.64806843 60.67382812 110.56054688 C60.6631296 122.14454417 60.64555075 133.72851599 60.625 145.3125 C51.055 145.3125 41.485 145.3125 31.625 145.3125 C30.635 142.899375 29.645 140.48625 28.625 138 C28.31175781 137.24420654 27.99851562 136.48841309 27.67578125 135.7097168 C26.48129156 132.76022788 25.625 130.5227388 25.625 127.3125 C25.1403125 127.73660156 24.655625 128.16070313 24.15625 128.59765625 C22.73791824 129.83869654 21.31572634 131.07533297 19.890625 132.30859375 C18.47580826 133.55997477 17.08523865 134.83999404 15.734375 136.16015625 C4.84099394 146.57294697 -9.52831736 148.66700415 -24.02587891 148.61743164 C-36.33451087 148.33000102 -47.39326722 144.77763334 -56.48828125 136.34375 C-66.10345566 125.99200944 -68.13172953 112.75959996 -67.65625 99.109375 C-66.80930039 87.67555531 -62.68225184 77.75249449 -54 70.0625 C-33.45405287 54.90565376 -3.70820989 55.9851474 20.625 56.3125 C20.2927269 49.33476494 19.81920976 43.56782745 16.625 37.3125 C16.295 36.3225 15.965 35.3325 15.625 34.3125 C13.37756244 33.16229475 13.37756244 33.16229475 10.625 32.3125 C9.26375 31.755625 9.26375 31.755625 7.875 31.1875 C-5.6118589 27.5564226 -23.60131137 32.8254884 -35.953125 38.49609375 C-38.76600826 39.44430762 -39.67313024 39.4808061 -42.375 38.3125 C-43.93066406 36.02758789 -43.93066406 36.02758789 -45.390625 33.03515625 C-45.91914063 31.96458984 -46.44765625 30.89402344 -46.9921875 29.79101562 C-47.53101563 28.66373047 -48.06984375 27.53644531 -48.625 26.375 C-49.17929687 25.25158203 -49.73359375 24.12816406 -50.3046875 22.97070312 C-54.375 14.63458282 -54.375 14.63458282 -54.375 12.3125 C-36.05436496 4.55492252 -20.14617803 -0.04937789 0 0 Z M-23.375 90.3125 C-26.84730945 96.09968241 -27.0887906 101.65715666 -26.375 108.3125 C-25.07983671 112.50273419 -23.60272986 114.40698536 -19.9375 116.625 C-11.78075663 120.48872054 -4.50532619 119.83913827 4.015625 117.2734375 C12.08535568 114.30165045 15.92535779 108.94766766 19.625 101.3125 C20.45409306 98.54230756 20.74452014 96.08915894 20.72265625 93.203125 C20.71943359 92.44902344 20.71621094 91.69492187 20.71289062 90.91796875 C20.70451172 90.14066406 20.69613281 89.36335937 20.6875 88.5625 C20.68298828 87.76972656 20.67847656 86.97695313 20.67382812 86.16015625 C20.66208565 84.21090492 20.64415146 82.26169262 20.625 80.3125 C-3.20851202 79.34992549 -3.20851202 79.34992549 -23.375 90.3125 Z " fill="#080808" transform="translate(431.375,642.6875)"/>
<path d="M0 0 C1.64510941 0.00015915 3.29022379 0.00585551 4.93530273 0.01586914 C6.23164894 0.01799156 6.23164894 0.01799156 7.55418396 0.02015686 C10.32578941 0.025773 13.09731528 0.0383282 15.86889648 0.05102539 C17.74324428 0.05603831 19.61759334 0.06060158 21.49194336 0.06469727 C26.09679192 0.07574767 30.70158069 0.09302309 35.30639648 0.11352539 C35.31226273 1.22693298 35.31812897 2.34034058 35.32417297 3.48748779 C35.38158135 14.02064832 35.45443657 24.55360599 35.5421114 35.0865593 C35.58668925 40.5006433 35.62597271 45.91465423 35.65283203 51.32885742 C35.67899104 56.56153675 35.71948132 61.79393295 35.76958275 67.02643585 C35.78616668 69.01489977 35.79773338 71.00341256 35.80401039 72.99193573 C35.26069552 92.3200229 35.26069552 92.3200229 43.30639648 109.11352539 C48.86787024 113.59086376 54.97388474 113.71494821 61.89624023 113.50024414 C69.25051509 112.66625421 75.18833271 109.46963865 80.30639648 104.11352539 C88.21892376 90.48204275 87.46773229 74.52577578 87.62280273 59.29321289 C87.64341167 57.5811416 87.66440906 55.86907494 87.68577576 54.15701294 C87.74059014 49.68224883 87.79017609 45.20744195 87.83862305 40.73260498 C87.88913755 36.15381123 87.94466621 31.57507848 87.99975586 26.99633789 C88.1068393 18.03545268 88.2083918 9.07451418 88.30639648 0.11352539 C93.84228182 0.08887764 99.37813548 0.07069044 104.9140625 0.05859375 C106.79883378 0.05355295 108.68360113 0.04672041 110.56835938 0.03808594 C113.27141284 0.02600922 115.97441479 0.02029471 118.67749023 0.01586914 C119.52540634 0.01070786 120.37332245 0.00554657 121.24693298 0.00022888 C123.26710717 0.00003344 125.28717582 0.05146328 127.30639648 0.11352539 C128.30639648 1.11352539 128.30639648 1.11352539 128.42944431 3.45423985 C128.42852252 4.50047488 128.42760073 5.54670992 128.426651 6.62464905 C128.428713 8.41892586 128.428713 8.41892586 128.43081665 10.24945068 C128.42727705 11.58703638 128.42364223 12.92462183 128.41992188 14.26220703 C128.41964001 15.6613515 128.41979773 17.06049612 128.42036438 18.4596405 C128.42065237 22.26938998 128.41475546 26.07910825 128.40779042 29.88885045 C128.40155707 33.86603848 128.4009531 37.84322715 128.39976501 41.82041931 C128.39665164 49.35691078 128.38843818 56.89338782 128.37841552 64.42987293 C128.36725457 73.00772367 128.36174398 81.58557509 128.35672009 90.16343129 C128.34625557 107.81347251 128.32791001 125.46349394 128.30639648 143.11352539 C118.07639648 143.11352539 107.84639648 143.11352539 97.30639648 143.11352539 C93.93139648 134.11352539 93.93139648 134.11352539 93.11889648 129.61352539 C92.9603418 128.75758789 92.80178711 127.90165039 92.63842773 127.01977539 C92.47407227 126.07618164 92.47407227 126.07618164 92.30639648 125.11352539 C91.64639648 125.11352539 90.98639648 125.11352539 90.30639648 125.11352539 C90.04600586 125.69360352 89.78561523 126.27368164 89.51733398 126.87133789 C84.48996719 136.18007511 74.89692645 140.85998934 65.27905273 144.14868164 C49.24358053 148.49625607 30.54116809 147.489719 15.80639648 139.42602539 C5.81362886 132.70819842 -0.08356953 123.21946039 -2.94360352 111.61352539 C-5.13945834 99.25552101 -4.84048992 86.79686564 -4.82641602 74.29321289 C-4.8270904 72.18140654 -4.82806155 70.06960027 -4.82931519 67.95779419 C-4.8307826 63.55526991 -4.82866632 59.15276604 -4.82397461 54.75024414 C-4.81824268 49.09518269 -4.82158409 43.44016834 -4.82754707 37.78510857 C-4.83114869 33.43585856 -4.83001656 29.08661987 -4.82741928 24.73736954 C-4.82675071 22.65046305 -4.82757599 20.56355554 -4.82989883 18.47665024 C-4.83242257 15.57546988 -4.82859036 12.67436784 -4.82299805 9.77319336 C-4.82502228 8.90574997 -4.82704651 8.03830658 -4.82913208 7.14457703 C-4.80399252 0.14765394 -4.80399252 0.14765394 0 0 Z " fill="#090909" transform="translate(414.693603515625,348.886474609375)"/>
<path d="M0 0 C38.92808821 -3.13547179 38.92808821 -3.13547179 48.08349609 1.59228516 C52.43151875 5.8730861 54.12396088 11.22570757 55.89306641 16.95214844 C57.96221459 22.64937955 61.3902465 27.59229232 64.625 32.6875 C65.80499059 34.64955734 66.98470293 36.61178205 68.1640625 38.57421875 C70.01799798 41.8950272 70.01799798 41.8950272 73 44 C73.21914063 43.36320313 73.43828125 42.72640625 73.6640625 42.0703125 C75.53298935 37.77505956 77.94745878 33.87513862 80.375 29.875 C80.83777344 29.10285156 81.30054688 28.33070313 81.77734375 27.53515625 C82.82797079 25.79325502 83.90753614 24.06863912 85.0078125 22.35766602 C86.62428631 19.63323412 87.94944374 16.99072715 89.2734375 14.12475586 C95.57670534 1.36867514 95.57670534 1.36867514 101.47064209 -0.98779297 C108.38135006 -2.35746322 115.27822313 -1.73709913 122.25 -1.1875 C124.36289948 -1.09204841 126.47621507 -1.00538121 128.58984375 -0.92773438 C133.73694584 -0.71964962 138.8638435 -0.39300826 144 0 C142.48059892 4.34479273 140.19042966 7.97371089 137.625 11.7578125 C137.18787186 12.41060684 136.75074371 13.06340118 136.30036926 13.73597717 C135.3599144 15.13912246 134.41732423 16.54083847 133.47280884 17.94125366 C131.98764276 20.14332218 130.50812672 22.34908985 129.0300293 24.5559082 C126.51192615 28.31371648 123.98921665 32.06840291 121.46478271 35.82196045 C117.96328917 41.0284606 114.46540412 46.23734593 110.97583008 51.45184326 C109.83647832 53.151725 108.6928154 54.84864593 107.54882812 56.54541016 C106.85853516 57.57585449 106.16824219 58.60629883 105.45703125 59.66796875 C104.85866455 60.55766357 104.26029785 61.4473584 103.64379883 62.36401367 C102.83011841 63.6688269 102.83011841 63.6688269 102 65 C101.32195312 65.9089502 100.64390625 66.81790039 99.9453125 67.75439453 C98.70482628 70.81841516 98.70482628 70.81841516 99.7474823 73.0381012 C101.18233654 75.54791085 102.75879676 77.89404218 104.41796875 80.26171875 C105.01799713 81.15797974 105.61802551 82.05424072 106.23623657 82.97766113 C108.1978905 85.89657952 110.1921868 88.79151197 112.1875 91.6875 C113.53250125 93.67658177 114.87519047 95.66722885 116.21557617 97.65942383 C118.88244605 101.61606361 121.56151994 105.56391905 124.25292969 109.50390625 C128.77397885 116.12496514 133.22704381 122.79024393 137.66567993 129.46670532 C138.79559813 131.16213888 139.9313761 132.85349257 141.0690918 134.54370117 C141.73336182 135.53345947 142.39763184 136.52321777 143.08203125 137.54296875 C143.65155518 138.38883545 144.2210791 139.23470215 144.80786133 140.10620117 C146 142 146 142 146 143 C139.72036682 143.25436226 133.44206736 143.42898665 127.15844727 143.54931641 C125.02317681 143.59948952 122.88824798 143.66764925 120.75415039 143.75439453 C103.06834678 144.45506724 103.06834678 144.45506724 98.16918945 141.00854492 C96.32092219 138.40281969 95.14975125 135.97303977 94 133 C93.20776877 131.64314509 92.39291221 130.29911809 91.55078125 128.97265625 C90.80124972 127.67124474 90.05521472 126.36781386 89.3125 125.0625 C83.80767779 115.53961504 77.92525677 106.26530959 72 97 C68.90632804 100.61049716 66.45368063 104.40480911 64.05126953 108.48730469 C63.02958717 110.21166593 61.9807527 111.92014034 60.90966797 113.61425781 C57.97159268 118.31890272 55.65694832 122.6991626 53.94140625 127.984375 C51.5151455 134.48023031 49.3356405 139.62206681 43 143 C28.30524033 146.32772262 11.86945672 144.26667009 -3 143 C3.27976681 132.98064693 9.80627263 123.12225 16.31396484 113.25024414 C18.23324144 110.33792947 20.1498929 107.42389921 22.06640625 104.50976562 C23.32015317 102.60666586 24.57405766 100.70366989 25.828125 98.80078125 C26.43611938 97.87588898 27.04411377 96.9509967 27.67053223 95.99807739 C30.52088737 91.67880901 33.40386474 87.39507928 36.40820312 83.18115234 C36.92985046 82.44535446 37.4514978 81.70955658 37.98895264 80.95146179 C38.95718584 79.59438027 39.93610362 78.24483272 40.92755127 76.90461731 C43.30574335 73.69859168 43.30574335 73.69859168 43.97460938 69.88110352 C42.74175793 67.50156435 41.40414659 65.28236385 39.921875 63.046875 C38.93719238 61.55196533 38.93719238 61.55196533 37.93261719 60.02685547 C37.21235352 58.94549316 36.49208984 57.86413086 35.75 56.75 C34.99843594 55.61252989 34.24747229 54.47466287 33.49707031 53.33642578 C31.87567299 50.87846049 30.25132811 48.42247885 28.625 45.96777344 C24.44386685 39.65311146 20.29157876 33.31947147 16.13684082 26.98742676 C14.77449398 24.91230906 13.41039661 22.83835198 12.04589844 20.76464844 C9.68939062 17.1815274 7.34168596 13.59282772 5 10 C4.43345703 9.13149414 3.86691406 8.26298828 3.28320312 7.36816406 C0 2.24535414 0 2.24535414 0 0 Z " fill="#090909" transform="translate(825,645)"/>
<path d="M0 0 C35.31 0 70.62 0 107 0 C107 30.83737693 107 30.83737693 100.03515625 37.96875 C99.54031738 38.443125 99.04547852 38.9175 98.53564453 39.40625 C95.55099741 42.50382972 93.20985586 46.10809315 90.75 49.625 C89.64169202 51.17227265 88.53098097 52.71782658 87.41796875 54.26171875 C86.8564209 55.04208496 86.29487305 55.82245117 85.71630859 56.62646484 C81.1194143 62.98364924 76.44145699 69.28193776 71.77929688 75.59130859 C68.78716794 79.64184976 65.7999125 83.6959798 62.8125 87.75 C62.29115479 88.45697021 61.76980957 89.16394043 61.23266602 89.89233398 C55.80807926 97.25159273 50.40659024 104.62737695 45 112 C77.175 112.495 77.175 112.495 110 113 C110 122.9 110 132.8 110 143 C72.38 143 34.76 143 -4 143 C-4 116.75740587 -4 116.75740587 2.8984375 109.49609375 C6.51489889 105.50403203 9.59845659 101.17455255 12.75 96.8125 C13.95107069 95.18207842 15.15421608 93.55318326 16.359375 91.92578125 C19.91143639 87.12100088 23.45651598 82.31110816 27 77.5 C30.50887215 72.73617273 34.01897805 67.97328199 37.53515625 63.21484375 C38.42170898 62.01408203 38.42170898 62.01408203 39.32617188 60.7890625 C40.41395431 59.31584535 41.50239226 57.84311174 42.59179688 56.37109375 C48.79729849 47.96314138 54.88053483 39.47310561 61 31 C40.87 31 20.74 31 0 31 C0 20.77 0 10.54 0 0 Z " fill="#090909" transform="translate(779,349)"/>
<path d="M0 0 C35.31 0 70.62 0 107 0 C107 30.83737693 107 30.83737693 100.03515625 37.96875 C99.54031738 38.443125 99.04547852 38.9175 98.53564453 39.40625 C95.55099741 42.50382972 93.20985586 46.10809315 90.75 49.625 C89.64169202 51.17227265 88.53098097 52.71782658 87.41796875 54.26171875 C86.8564209 55.04208496 86.29487305 55.82245117 85.71630859 56.62646484 C81.1194143 62.98364924 76.44145699 69.28193776 71.77929688 75.59130859 C68.78716794 79.64184976 65.7999125 83.6959798 62.8125 87.75 C62.29115479 88.45697021 61.76980957 89.16394043 61.23266602 89.89233398 C55.80807926 97.25159273 50.40659024 104.62737695 45 112 C77.175 112.495 77.175 112.495 110 113 C110 122.9 110 132.8 110 143 C72.38 143 34.76 143 -4 143 C-4 116.75740587 -4 116.75740587 2.8984375 109.49609375 C6.51489889 105.50403203 9.59845659 101.17455255 12.75 96.8125 C13.95107069 95.18207842 15.15421608 93.55318326 16.359375 91.92578125 C19.91143639 87.12100088 23.45651598 82.31110816 27 77.5 C30.50887215 72.73617273 34.01897805 67.97328199 37.53515625 63.21484375 C38.42170898 62.01408203 38.42170898 62.01408203 39.32617188 60.7890625 C40.41395431 59.31584535 41.50239226 57.84311174 42.59179688 56.37109375 C48.79729849 47.96314138 54.88053483 39.47310561 61 31 C40.87 31 20.74 31 0 31 C0 20.77 0 10.54 0 0 Z " fill="#080808" transform="translate(652,349)"/>
<path d="M0 0 C1.084021 0.00523682 2.16804199 0.01047363 3.28491211 0.01586914 C4.33815674 0.0183667 5.39140137 0.02086426 6.4765625 0.0234375 C7.82484131 0.0325415 9.17312012 0.04164551 10.56225586 0.05102539 C14.83163086 0.07165039 19.10100586 0.09227539 23.49975586 0.11352539 C23.49975586 10.01352539 23.49975586 19.91352539 23.49975586 30.11352539 C36.36975586 30.11352539 49.23975586 30.11352539 62.49975586 30.11352539 C62.49975586 40.01352539 62.49975586 49.91352539 62.49975586 60.11352539 C49.62975586 60.11352539 36.75975586 60.11352539 23.49975586 60.11352539 C23.59053113 73.32169773 23.59053113 73.32169773 23.70874023 86.52954102 C23.76304911 91.91729078 23.81415967 97.30493683 23.84619141 102.69287109 C23.87222044 107.0372651 23.91261989 111.38131051 23.96294212 115.72548866 C23.97961357 117.3820086 23.99112613 119.03858883 23.99736977 120.69518089 C24.00700802 123.01753567 24.03506263 125.33899812 24.06738281 127.66113281 C24.06594772 128.34446182 24.06451263 129.02779083 24.06303406 129.73182678 C24.14714518 134.01135994 24.8872457 136.7090198 27.49975586 140.11352539 C34.79614647 144.80699014 43.16180581 143.86607106 51.41772461 142.43383789 C53.83060769 141.90875453 56.23784249 141.35653025 58.63647461 140.76977539 C61.49975586 140.11352539 61.49975586 140.11352539 64.49975586 140.11352539 C64.49975586 150.01352539 64.49975586 159.91352539 64.49975586 170.11352539 C44.72390233 176.1984034 21.23046873 180.65755443 1.62475586 170.98852539 C-6.66986087 165.81404382 -11.82937129 158.42191395 -14.50024414 149.11352539 C-14.84249023 147.95087158 -15.18473633 146.78821777 -15.53735352 145.59033203 C-17.24076308 137.79236046 -16.74464964 129.67475997 -16.69555664 121.73461914 C-16.69182111 119.95386413 -16.68897669 118.17310705 -16.6869812 116.39234924 C-16.67938721 111.73170176 -16.65977561 107.07118122 -16.63757324 102.4105835 C-16.61702306 97.64426388 -16.60795996 92.87792352 -16.59790039 88.11157227 C-16.57652528 78.77882556 -16.54137818 69.44620595 -16.50024414 60.11352539 C-22.77024414 60.11352539 -29.04024414 60.11352539 -35.50024414 60.11352539 C-37.07897177 47.68104528 -37.07897177 47.68104528 -35.50024414 43.11352539 C-31.83789593 38.84018562 -26.58051777 36.41258255 -21.53662109 34.10229492 C-20.8646167 33.77600098 -20.1926123 33.44970703 -19.50024414 33.11352539 C-18.2278186 32.51701172 -18.2278186 32.51701172 -16.9296875 31.90844727 C-13.67875914 29.50659567 -12.9993755 27.29564331 -11.64086914 23.51196289 C-11.40615906 22.8748941 -11.17144897 22.23782532 -10.92962646 21.58145142 C-10.18694405 19.55594545 -9.46802909 17.52297153 -8.75024414 15.48852539 C-8.013274 13.44901455 -7.27158471 11.41128915 -6.52801514 9.37417603 C-5.85868986 7.53287462 -5.20115467 5.68730025 -4.54418945 3.84155273 C-3.12848615 0.14205117 -3.12848615 0.14205117 0 0 Z " fill="#080808" transform="translate(551.500244140625,614.886474609375)"/>
<path d="M0 0 C1.19592773 0.0009668 1.19592773 0.0009668 2.41601562 0.00195312 C5.74800698 0.02717425 8.50716149 0.12738716 11.6875 1.1875 C11.19938749 13.60867878 10.33168311 25.86410816 8.6875 38.1875 C8.12466309 38.16131592 7.56182617 38.13513184 6.98193359 38.1081543 C-7.22080815 37.53651348 -19.64880285 37.55712204 -31.375 46.75 C-40.18444035 55.42820101 -41.37692347 67.13368663 -41.51782227 78.88867188 C-41.52772186 79.61160431 -41.53762146 80.33453674 -41.54782104 81.07937622 C-41.57908347 83.43830231 -41.60405192 85.79724846 -41.62890625 88.15625 C-41.64950635 89.80391932 -41.67050356 91.45158372 -41.69187927 93.09924316 C-41.74678468 97.41292305 -41.79633153 101.7266481 -41.84472656 106.04040527 C-41.90406002 111.2284941 -41.97011261 116.41650128 -42.03502655 121.60452271 C-42.13263869 129.46546482 -42.22176601 137.32646194 -42.3125 145.1875 C-55.1825 145.1875 -68.0525 145.1875 -81.3125 145.1875 C-81.3125 97.9975 -81.3125 50.8075 -81.3125 2.1875 C-71.4125 2.1875 -61.5125 2.1875 -51.3125 2.1875 C-50.4875 5.219375 -49.6625 8.25125 -48.8125 11.375 C-48.55146484 12.32141357 -48.29042969 13.26782715 -48.02148438 14.24291992 C-47.81845703 15.00193604 -47.61542969 15.76095215 -47.40625 16.54296875 C-47.19677734 17.31278076 -46.98730469 18.08259277 -46.77148438 18.87573242 C-46.27711271 21.36573523 -46.23416481 23.65531499 -46.3125 26.1875 C-43.84936044 23.90681522 -42.03551059 21.76386914 -40.1875 18.9375 C-33.58370242 9.52658357 -22.5465522 3.19535664 -11.50683594 0.57128906 C-7.67334691 -0.09918766 -3.88069451 -0.06108798 0 0 Z " fill="#050505" transform="translate(725.3125,642.8125)"/>
<path d="M0 0 C13.2 0 26.4 0 40 0 C40 47.19 40 94.38 40 143 C26.8 143 13.6 143 0 143 C0 95.81 0 48.62 0 0 Z " fill="#090909" transform="translate(762,645)"/>
<path d="M0 0 C13.2 0 26.4 0 40 0 C40 47.19 40 94.38 40 143 C26.8 143 13.6 143 0 143 C0 95.81 0 48.62 0 0 Z " fill="#090909" transform="translate(582,349)"/>
<path d="M0 0 C4.03917169 3.24889897 5.92692046 5.92726036 7 11 C7.79029365 18.59246404 6.50098916 24.68986729 1.875 30.8125 C-5.17151348 36.17397765 -12.00713597 36.49680143 -20.6796875 35.64453125 C-26.36701002 34.54052158 -30.08160729 32.10404361 -33.9375 27.875 C-36.14246442 23.98388631 -36.1938432 20.58176954 -36.25 16.1875 C-36.28867187 14.38345703 -36.28867187 14.38345703 -36.328125 12.54296875 C-35.863184 7.52271294 -34.28969126 4.25483474 -30.6875 0.75 C-21.81402639 -5.02807584 -9.23593854 -4.86985851 0 0 Z " fill="#0D0D0D" transform="translate(617,297)"/>
<path d="M0 0 C3.62216238 2.47328268 5.40604612 5.10876337 6.7734375 9.2109375 C7.44124166 16.71896426 7.92132805 23.51664991 3.19140625 29.73046875 C-0.44101374 33.52299541 -5.04415476 35.54605918 -10.2265625 36.2109375 C-18.79957347 36.22164039 -25.21976845 35.48922354 -31.9765625 29.9609375 C-35.80457148 25.28225985 -36.67004854 20.24924907 -36.47265625 14.2578125 C-35.85453422 9.11660701 -34.32678816 4.83787832 -30.4140625 1.3359375 C-21.58860416 -4.54770139 -9.39610255 -4.92509465 0 0 Z " fill="#0D0D0D" transform="translate(796.2265625,592.7890625)"/>
<path d="M0 0 C0.66 0.33 1.32 0.66 2 1 C-0.97 3.97 -3.94 6.94 -7 10 C-7.66 9.67 -8.32 9.34 -9 9 C-6.21000549 5.51250686 -3.74764169 2.49842779 0 0 Z " fill="#696969" transform="translate(380,711)"/>
<path d="M0 0 C0.66 0.66 1.32 1.32 2 2 C-0.31 4.64 -2.62 7.28 -5 10 C-5.66 9.67 -6.32 9.34 -7 9 C-4.69 6.03 -2.38 3.06 0 0 Z " fill="#5F5F5F" transform="translate(692,409)"/>
<path d="" fill="#FFFFFF" transform="translate(0,0)"/>
<path d="" fill="#FFFFFF" transform="translate(0,0)"/>
<path d="" fill="#FFFFFF" transform="translate(0,0)"/>
<path d="" fill="#FFFFFF" transform="translate(0,0)"/>
<path d="" fill="#FFFFFF" transform="translate(0,0)"/>
<path d="" fill="#FFFFFF" transform="translate(0,0)"/>
<path d="" fill="#FFFFFF" transform="translate(0,0)"/>
<path d="" fill="#FFFFFF" transform="translate(0,0)"/>
<path d="" fill="#FFFFFF" transform="translate(0,0)"/>
<path d="" fill="#FFFFFF" transform="translate(0,0)"/>
<path d="" fill="#FFFFFF" transform="translate(0,0)"/>
<path d="" fill="#FFFFFF" transform="translate(0,0)"/>
<path d="" fill="#FFFFFF" transform="translate(0,0)"/>
<path d="" fill="#FFFFFF" transform="translate(0,0)"/>
<path d="" fill="#FFFFFF" transform="translate(0,0)"/>
<path d="" fill="#FFFFFF" transform="translate(0,0)"/>
<path d="" fill="#FFFFFF" transform="translate(0,0)"/>
<path d="" fill="#FFFFFF" transform="translate(0,0)"/>
<path d="" fill="#FFFFFF" transform="translate(0,0)"/>
<path d="" fill="#FFFFFF" transform="translate(0,0)"/>
<path d="" fill="#FFFFFF" transform="translate(0,0)"/>
<path d="" fill="#FFFFFF" transform="translate(0,0)"/>
<path d="" fill="#FFFFFF" transform="translate(0,0)"/>
<path d="" fill="#FFFFFF" transform="translate(0,0)"/>
<path d="" fill="#FFFFFF" transform="translate(0,0)"/>
<path d="" fill="#FFFFFF" transform="translate(0,0)"/>
<path d="" fill="#FFFFFF" transform="translate(0,0)"/>
<path d="" fill="#FFFFFF" transform="translate(0,0)"/>
<path d="" fill="#FFFFFF" transform="translate(0,0)"/>
<path d="" fill="#FFFFFF" transform="translate(0,0)"/>
<path d="" fill="#FFFFFF" transform="translate(0,0)"/>
<path d="" fill="#FFFFFF" transform="translate(0,0)"/>
<path d="" fill="#FFFFFF" transform="translate(0,0)"/>
<path d="" fill="#FFFFFF" transform="translate(0,0)"/>
<path d="" fill="#FFFFFF" transform="translate(0,0)"/>
<path d="" fill="#FFFFFF" transform="translate(0,0)"/>
<path d="" fill="#FFFFFF" transform="translate(0,0)"/>
<path d="" fill="#FFFFFF" transform="translate(0,0)"/>
<path d="" fill="#FFFFFF" transform="translate(0,0)"/>
<path d="" fill="#FFFFFF" transform="translate(0,0)"/>
<path d="" fill="#FFFFFF" transform="translate(0,0)"/>
<path d="" fill="#FFFFFF" transform="translate(0,0)"/>
<path d="" fill="#FFFFFF" transform="translate(0,0)"/>
<path d="" fill="#FFFFFF" transform="translate(0,0)"/>
<path d="" fill="#FFFFFF" transform="translate(0,0)"/>
<path d="" fill="#FFFFFF" transform="translate(0,0)"/>
<path d="" fill="#FFFFFF" transform="translate(0,0)"/>
<path d="" fill="#FFFFFF" transform="translate(0,0)"/>
<path d="" fill="#FFFFFF" transform="translate(0,0)"/>
<path d="" fill="#FFFFFF" transform="translate(0,0)"/>
<path d="" fill="#FFFFFF" transform="translate(0,0)"/>
<path d="" fill="#FFFFFF" transform="translate(0,0)"/>
<path d="" fill="#FFFFFF" transform="translate(0,0)"/>
<path d="" fill="#FFFFFF" transform="translate(0,0)"/>
<path d="" fill="#FFFFFF" transform="translate(0,0)"/>
<path d="" fill="#FFFFFF" transform="translate(0,0)"/>
<path d="" fill="#FFFFFF" transform="translate(0,0)"/>
<path d="" fill="#FFFFFF" transform="translate(0,0)"/>
<path d="" fill="#FFFFFF" transform="translate(0,0)"/>
<path d="" fill="#FFFFFF" transform="translate(0,0)"/>
<path d="" fill="#FFFFFF" transform="translate(0,0)"/>
<path d="" fill="#FFFFFF" transform="translate(0,0)"/>
<path d="" fill="#FFFFFF" transform="translate(0,0)"/>
<path d="" fill="#FFFFFF" transform="translate(0,0)"/>
<path d="" fill="#FFFFFF" transform="translate(0,0)"/>
<path d="" fill="#FFFFFF" transform="translate(0,0)"/>
<path d="" fill="#FFFFFF" transform="translate(0,0)"/>
<path d="" fill="#FFFFFF" transform="translate(0,0)"/>
<path d="" fill="#FFFFFF" transform="translate(0,0)"/>
<path d="" fill="#FFFFFF" transform="translate(0,0)"/>
<path d="" fill="#FFFFFF" transform="translate(0,0)"/>
<path d="" fill="#FFFFFF" transform="translate(0,0)"/>
<path d="" fill="#FFFFFF" transform="translate(0,0)"/>
<path d="" fill="#FFFFFF" transform="translate(0,0)"/>
<path d="" fill="#FFFFFF" transform="translate(0,0)"/>
<path d="" fill="#FFFFFF" transform="translate(0,0)"/>
<path d="" fill="#FFFFFF" transform="translate(0,0)"/>
<path d="" fill="#FFFFFF" transform="translate(0,0)"/>
<path d="" fill="#FFFFFF" transform="translate(0,0)"/>
<path d="" fill="#FFFFFF" transform="translate(0,0)"/>
<path d="" fill="#FFFFFF" transform="translate(0,0)"/>
<path d="" fill="#FFFFFF" transform="translate(0,0)"/>
<path d="" fill="#FFFFFF" transform="translate(0,0)"/>
<path d="" fill="#FFFFFF" transform="translate(0,0)"/>
<path d="" fill="#FFFFFF" transform="translate(0,0)"/>
<path d="" fill="#FFFFFF" transform="translate(0,0)"/>
<path d="" fill="#FFFFFF" transform="translate(0,0)"/>
<path d="" fill="#FFFFFF" transform="translate(0,0)"/>
<path d="" fill="#FFFFFF" transform="translate(0,0)"/>
<path d="" fill="#FFFFFF" transform="translate(0,0)"/>
<path d="" fill="#FFFFFF" transform="translate(0,0)"/>
<path d="" fill="#FFFFFF" transform="translate(0,0)"/>
<path d="" fill="#FFFFFF" transform="translate(0,0)"/>
<path d="" fill="#FFFFFF" transform="translate(0,0)"/>
<path d="" fill="#FFFFFF" transform="translate(0,0)"/>
<path d="" fill="#FFFFFF" transform="translate(0,0)"/>
</svg>
