<?xml version="1.0" encoding="UTF-8" standalone="no"?>
<!-- Created with Inkscape (http://www.inkscape.org/) -->

<svg
   width="512"
   height="512"
   version="1.1"
   viewBox="0 0 135.4656 135.4656"
   id="svg10"
   sodipodi:docname="pwa-512x512.svg"
   inkscape:version="1.3.2 (091e20e, 2023-11-25, custom)"
   xmlns:inkscape="http://www.inkscape.org/namespaces/inkscape"
   xmlns:sodipodi="http://sodipodi.sourceforge.net/DTD/sodipodi-0.dtd"
   xmlns="http://www.w3.org/2000/svg"
   xmlns:svg="http://www.w3.org/2000/svg">
  <defs
     id="defs10" />
  <sodipodi:namedview
     id="namedview10"
     pagecolor="#505050"
     bordercolor="#eeeeee"
     borderopacity="1"
     inkscape:showpageshadow="0"
     inkscape:pageopacity="0"
     inkscape:pagecheckerboard="0"
     inkscape:deskcolor="#505050"
     inkscape:zoom="1.4433594"
     inkscape:cx="255.65359"
     inkscape:cy="256"
     inkscape:window-width="1920"
     inkscape:window-height="974"
     inkscape:window-x="-11"
     inkscape:window-y="-11"
     inkscape:window-maximized="1"
     inkscape:current-layer="svg10" />
  <g
     id="g11"
     transform="scale(31.999245)">
    <circle
       cx="2.1166999"
       cy="2.1166999"
       r="2.1166999"
       stroke-width="0.84428"
       id="circle1" />
    <g
       transform="matrix(0.11504,0,0,0.11504,-0.75924,-0.75924)"
       fill="#ffffff"
       id="g10">
      <circle
         cx="25"
         cy="25"
         r="1.5"
         stroke-width="0.26718"
         id="circle2" />
      <circle
         cx="15"
         cy="15"
         r="1.5"
         stroke-width="0.26718"
         id="circle3" />
      <path
         d="m 23.996,21.258 v -5.0966 c 0,0 0.13907,-1.1612 -1.2516,-1.1612 h -5.1456 c 0,0 -1.2493,0.12794 -0.13907,1.2258 l 5.2847,5.2256 c 0,0 1.2516,1.3548 1.2516,-0.19354 z"
         stroke-width="0.28632"
         id="path3" />
      <path
         d="m 15.004,17.742 v 5.0966 c 0,0 -0.13907,1.1612 1.2516,1.1612 h 5.1456 c 0,0 1.2493,-0.12794 0.13907,-1.2258 l -5.2847,-5.2256 c 0,0 -1.2516,-1.3548 -1.2516,0.19354 z"
         stroke-width="0.28632"
         id="path4" />
      <circle
         transform="scale(-1,1)"
         cx="-35"
         cy="15"
         r="1.5"
         stroke-width="0.26718"
         id="circle4" />
      <path
         d="m 26.004,21.258 v -5.0966 c 0,0 -0.13907,-1.1612 1.2516,-1.1612 h 5.1456 c 0,0 1.2493,0.12794 0.13907,1.2258 l -5.2847,5.2256 c 0,0 -1.2516,1.3548 -1.2516,-0.19354 z"
         stroke-width="0.28632"
         id="path5" />
      <path
         d="m 34.996,17.742 v 5.0966 c 0,0 0.13907,1.1612 -1.2516,1.1612 h -5.1456 c 0,0 -1.2493,-0.12794 -0.13907,-1.2258 l 5.2847,-5.2256 c 0,0 1.2516,-1.3548 1.2516,0.19354 z"
         stroke-width="0.28632"
         id="path6" />
      <circle
         transform="scale(1,-1)"
         cx="15"
         cy="-35"
         r="1.5"
         stroke-width="0.26718"
         id="circle6" />
      <path
         d="m 23.996,28.742 v 5.0966 c 0,0 0.13907,1.1612 -1.2516,1.1612 h -5.1456 c 0,0 -1.2493,-0.12794 -0.13907,-1.2258 l 5.2847,-5.2256 c 0,0 1.2516,-1.3548 1.2516,0.19354 z"
         stroke-width="0.28632"
         id="path7" />
      <path
         d="m 15.004,32.258 v -5.0966 c 0,0 -0.13907,-1.1612 1.2516,-1.1612 h 5.1456 c 0,0 1.2493,0.12794 0.13907,1.2258 l -5.2847,5.2256 c 0,0 -1.2516,1.3548 -1.2516,-0.19354 z"
         stroke-width="0.28632"
         id="path8" />
      <circle
         transform="scale(-1)"
         cx="-35"
         cy="-35"
         r="1.5"
         stroke-width="0.26718"
         id="circle8" />
      <path
         d="m 26.004,28.742 v 5.0966 c 0,0 -0.13907,1.1612 1.2516,1.1612 h 5.1456 c 0,0 1.2493,-0.12794 0.13907,-1.2258 l -5.2847,-5.2256 c 0,0 -1.2516,-1.3548 -1.2516,0.19354 z"
         stroke-width="0.28632"
         id="path9" />
      <path
         d="m 34.996,32.258 v -5.0966 c 0,0 0.13907,-1.1612 -1.2516,-1.1612 h -5.1456 c 0,0 -1.2493,0.12794 -0.13907,1.2258 l 5.2847,5.2256 c 0,0 1.2516,1.3548 1.2516,-0.19354 z"
         stroke-width="0.28632"
         id="path10" />
    </g>
  </g>
</svg>
